<svg width="40" height="40" viewBox="0 0 40 40" fill="none" xmlns="http://www.w3.org/2000/svg">
<g clip-path="url(#clip0)">
<path d="M19.7397 9.16667H18.6856C18.3693 7.92083 17.3535 7 16.146 7C14.9385 7 13.9227 7.92083 13.6064 9.16667H12.5522C12.1593 9.16667 11.8335 9.535 11.8335 9.97917V11.6042C11.8335 12.6442 12.5906 13.5 13.5106 13.5H18.7814C19.7014 13.5 20.4585 12.6442 20.4585 11.6042V9.97917C20.4585 9.535 20.1327 9.16667 19.7397 9.16667Z" fill="#194079"/>
<path d="M21.6562 10.25H21.4167V11.6042C21.4167 13.2508 20.2379 14.5833 18.7812 14.5833H13.5104C12.0538 14.5833 10.875 13.2508 10.875 11.6042V10.25H10.6354C9.17875 10.25 8 11.5825 8 13.2292V26.7708C8 28.4175 9.17875 29.75 10.6354 29.75H18.7333C17.9283 28.58 17.2479 27.2908 16.8933 25.9583H11.5938C11.2008 25.9583 10.875 25.59 10.875 25.1458C10.875 24.7017 11.2008 24.3333 11.5938 24.3333H16.6346C16.625 24.2358 16.625 24.1492 16.625 24.0517C16.625 23.4992 16.6921 22.9575 16.8263 22.4375H11.5938C11.2008 22.4375 10.875 22.0692 10.875 21.625C10.875 21.1808 11.2008 20.8125 11.5938 20.8125H17.4396C17.8421 20.065 18.3883 19.415 19.0304 18.9167H11.5938C11.2008 18.9167 10.875 18.5483 10.875 18.1042C10.875 17.66 11.2008 17.2917 11.5938 17.2917H20.6979C21.0238 17.2917 21.3113 17.5517 21.3879 17.8983C21.6275 17.855 21.8767 17.8333 22.1354 17.8333C22.8829 17.8333 23.6208 18.0067 24.2917 18.3317V13.2292C24.2917 11.5825 23.1129 10.25 21.6562 10.25Z" fill="#00ADEF"/>
<path d="M24.7707 33C24.6202 33 24.4698 32.9469 24.3423 32.8397C23.7481 32.3402 18.5415 27.8542 18.5415 24.0495C18.5415 21.8168 20.1544 20 22.1353 20C23.154 20 24.1037 20.4832 24.7707 21.2935C25.4377 20.4832 26.3874 20 27.4061 20C29.387 20 30.9998 21.8168 30.9998 24.0495C30.9998 27.8542 25.7932 32.3402 25.199 32.8397C25.0716 32.9469 24.9211 33 24.7707 33Z" fill="#00ADEF"/>
</g>
<defs>
<clipPath id="clip0">
<rect x="8" y="7" width="23" height="26" fill="white"/>
</clipPath>
</defs>
</svg>
