<svg width="40" height="37" viewBox="0 0 40 37" fill="none" xmlns="http://www.w3.org/2000/svg">
<path d="M17.6551 10.2021H12.6006V7.90773C12.6006 7.62379 12.8496 7.39355 13.1569 7.39355H17.0988C17.4061 7.39355 17.6552 7.62374 17.6552 7.90773V10.2021H17.6551Z" fill="#194079"/>
<path d="M11.5483 9.36399V10.7712L9.96224 11.923C9.35473 12.3641 9 13.0387 9 13.7527V27.6824C9 28.5282 9.74191 29.2139 10.6572 29.2139H19.5989C20.5142 29.2139 21.2561 28.5282 21.2561 27.6824V13.7527C21.2561 13.0387 20.9014 12.3641 20.2938 11.923L18.7078 10.7712V9.36399C18.7078 9.24305 18.6017 9.14502 18.4709 9.14502H11.7852C11.6544 9.14502 11.5483 9.24305 11.5483 9.36399Z" fill="#00ADEF"/>
<path d="M11.8495 29.1481V15.2185C11.8495 14.5045 12.2042 13.8299 12.8117 13.3888L13.8362 12.6448C14.1908 12.3873 14.3978 11.9937 14.3978 11.5769C14.3978 11.0433 14.8658 10.6108 15.4432 10.6108H18.7078V9.36301C18.7078 9.24207 18.6017 9.14404 18.4709 9.14404H11.7852C11.6544 9.14404 11.5483 9.24207 11.5483 9.36301V10.7703L9.96224 11.922C9.35473 12.3632 9 13.0377 9 13.7518V27.6814C9 28.5273 9.74191 29.213 10.6572 29.213H11.8513C11.8503 29.1915 11.8495 29.1699 11.8495 29.1481Z" fill="#00ADEF"/>
<path d="M9 16.6357H21V22.1811H9V16.6357Z" fill="white"/>
<path d="M15 20.7951C14.9638 20.7951 14.9275 20.7838 14.8968 20.7609C14.7538 20.6544 13.5 19.6976 13.5 18.8861C13.5 18.4099 13.8884 18.0225 14.3654 18.0225C14.6107 18.0225 14.8394 18.1255 15 18.2983C15.1606 18.1255 15.3893 18.0225 15.6346 18.0225C16.1116 18.0225 16.5 18.4099 16.5 18.8861C16.5 19.6976 15.2462 20.6544 15.1032 20.7609C15.0725 20.7838 15.0362 20.7951 15 20.7951Z" fill="#00ADEF"/>
<g clip-path="url(#clip0)">
<path d="M28.5869 21.3106V22.1183L28.2861 25.0668L28.5869 27.8487V28.3139C28.5869 29.0104 28.2546 29.575 27.501 29.575H20.778C20.0244 29.575 19.4136 29.0104 19.4136 28.3139V27.8487L19.769 25.1434L19.4136 22.1183V21.3106C19.4136 21.1233 19.4789 20.9414 19.5998 20.7913L20.8065 19.2944H27.194L28.4006 20.7913C28.5215 20.9414 28.5869 21.1233 28.5869 21.3106Z" fill="#00ADEF"/>
<path d="M28.5867 21.3106V22.1183L28.286 25.0668L28.5867 27.8487V28.3139C28.5867 29.0104 28.2545 29.575 27.5009 29.575H26.4619C27.2154 29.575 27.5477 29.0104 27.5477 28.3139V21.3106C27.5477 21.1233 27.4823 20.9414 27.3615 20.7913L26.1548 19.2944H27.1938L28.4005 20.7913C28.5214 20.9414 28.5867 21.1233 28.5867 21.3106Z" fill="#00ADEF"/>
<path d="M19.4136 22.1182H28.5869V27.8485H19.4136V22.1182Z" fill="white"/>
<path d="M27.5479 22.1182H28.5869V27.8485H27.5479V22.1182Z" fill="white"/>
<path d="M25.2305 24.4779H24.5469V23.8461C24.5469 23.7763 24.4857 23.7197 24.4102 23.7197H23.5898C23.5143 23.7197 23.4531 23.7763 23.4531 23.8461V24.4779H22.7695C22.694 24.4779 22.6328 24.5345 22.6328 24.6042V25.3624C22.6328 25.4322 22.694 25.4887 22.7695 25.4887H23.4531V26.1205C23.4531 26.1903 23.5143 26.2469 23.5898 26.2469H24.4102C24.4857 26.2469 24.5469 26.1903 24.5469 26.1205V25.4887H25.2305C25.306 25.4887 25.3672 25.4322 25.3672 25.3624V24.6042C25.3672 24.5345 25.306 24.4779 25.2305 24.4779Z" fill="#00ADEF"/>
<path d="M27.7585 16.9678V19.0649C27.7585 19.2483 27.5977 19.3969 27.3992 19.3969H20.601C20.4025 19.3969 20.2417 19.2483 20.2417 19.0649V16.9678C20.2417 16.7843 20.4025 16.6357 20.601 16.6357H27.3992C27.5977 16.6357 27.7585 16.7843 27.7585 16.9678Z" fill="#194079"/>
<path d="M27.7587 16.9678V19.0649C27.7587 19.2483 27.598 19.3969 27.3995 19.3969H26.5674C26.7659 19.3969 26.9267 19.2483 26.9267 19.0649V16.9678C26.9267 16.7843 26.7659 16.6357 26.5674 16.6357H27.3995C27.598 16.6357 27.7587 16.7843 27.7587 16.9678Z" fill="#194079"/>
<path d="M24.0005 17.3555C23.8872 17.3555 23.7954 17.4403 23.7954 17.545V18.4876C23.7954 18.5923 23.8872 18.6772 24.0005 18.6772C24.1138 18.6772 24.2056 18.5923 24.2056 18.4876V17.545C24.2056 17.4403 24.1138 17.3555 24.0005 17.3555Z" fill="#194079"/>
<path d="M22.0718 17.3555C21.9585 17.3555 21.8667 17.4403 21.8667 17.545V18.4876C21.8667 18.5923 21.9585 18.6772 22.0718 18.6772C22.1851 18.6772 22.2769 18.5923 22.2769 18.4876V17.545C22.2769 17.4403 22.185 17.3555 22.0718 17.3555Z" fill="#194079"/>
<path d="M25.9287 17.3555C25.8154 17.3555 25.7236 17.4403 25.7236 17.545V18.4876C25.7236 18.5923 25.8154 18.6772 25.9287 18.6772C26.042 18.6772 26.1338 18.5923 26.1338 18.4876V17.545C26.1338 17.4403 26.042 17.3555 25.9287 17.3555Z" fill="#194079"/>
</g>
<defs>
<clipPath id="clip0">
<rect x="17" y="16.6357" width="14" height="12.9391" fill="white"/>
</clipPath>
</defs>
</svg>
