<svg width="40" height="40" viewBox="0 0 40 40" fill="none" xmlns="http://www.w3.org/2000/svg">
<path d="M24.125 9H19.4375C19.4375 9.495 19.0156 9.9 18.5 9.9C17.9844 9.9 17.5625 9.495 17.5625 9H12.875C11.8437 9 11 9.81 11 10.8V25.2C11 26.19 11.8437 27 12.875 27H24.125C25.1562 27 26 26.19 26 25.2V10.8C26 9.81 25.1562 9 24.125 9Z" fill="#00ADEF"/>
<path d="M23.5385 26H12.4615C12.1846 26 12 25.8118 12 25.5294V10.4706C12 10.1882 12.1846 10 12.4615 10H23.5385C23.8154 10 24 10.1882 24 10.4706V25.5294C24 25.8118 23.8154 26 23.5385 26Z" fill="white"/>
<path d="M19.4075 8.85205C19.4075 9.36131 18.9909 9.77798 18.4816 9.77798C17.9724 9.77798 17.5557 9.36131 17.5557 8.85205H14.3149V10.7039C14.3149 11.2132 14.7316 11.6298 15.2409 11.6298H21.7224C22.2316 11.6298 22.6483 11.2132 22.6483 10.7039V8.85205H19.4075Z" fill="#194079"/>
<path d="M18.4817 7C17.4632 7 16.6299 7.83333 16.6299 8.85185C16.6299 9.87037 17.4632 10.7037 18.4817 10.7037C19.5003 10.7037 20.3336 9.87037 20.3336 8.85185C20.3336 7.83333 19.5003 7 18.4817 7ZM18.4817 9.77778C17.9725 9.77778 17.5558 9.36111 17.5558 8.85185C17.5558 8.34259 17.9725 7.92593 18.4817 7.92593C18.991 7.92593 19.4077 8.34259 19.4077 8.85185C19.4077 9.36111 18.991 9.77778 18.4817 9.77778Z" fill="#194079"/>
<path d="M17.0928 16.2593H22.6483V17.1852H17.0928V16.2593Z" fill="#194079"/>
<path d="M14.3149 15.7964H16.1668V17.6482H14.3149V15.7964Z" fill="#00ADEF"/>
<path d="M17.0928 20.4258H22.6483V21.3517H17.0928V20.4258Z" fill="#194079"/>
<path d="M14.3149 19.9629H16.1668V21.8147H14.3149V19.9629Z" fill="#00ADEF"/>
<path d="M26.2501 21.3749L25.3688 20.4937L21.4063 24.4562L22.2876 25.3374L26.2501 21.3749ZM28.9001 20.4937L22.2876 27.1062L19.6751 24.4999L18.7938 25.3812L22.2876 28.8749L29.7876 21.3749L28.9001 20.4937ZM15.2563 25.3812L18.7501 28.8749L19.6313 27.9937L16.1438 24.4999L15.2563 25.3812Z" fill="#194079"/>
</svg>
