<svg xmlns="http://www.w3.org/2000/svg" xmlns:xlink="http://www.w3.org/1999/xlink" width="360" height="640" viewBox="0 0 360 640">
  <defs>
    <linearGradient id="linear-gradient" x1="0.5" x2="0.5" y2="1" gradientUnits="objectBoundingBox">
      <stop offset="0" stop-color="#3890d5"/>
      <stop offset="1" stop-color="#061173"/>
    </linearGradient>
    <clipPath id="clip-Home_1_1">
      <rect width="360" height="640"/>
    </clipPath>
  </defs>
  <g id="Home_1_1" data-name="Home 1 – 1" clip-path="url(#clip-Home_1_1)">
    <rect width="360" height="640" fill="#dedede"/>
    <g id="Group_885" data-name="Group 885">
      <path id="Rectangle_142" data-name="Rectangle 142" d="M0,0H360a0,0,0,0,1,0,0V155a30,30,0,0,1-30,30H30A30,30,0,0,1,0,155V0A0,0,0,0,1,0,0Z" fill="url(#linear-gradient)"/>
      <path id="Path_180" data-name="Path 180" d="M34.167,0c18.87,0,34.167,14.151,34.167,31.608s-15.3,31.608-34.167,31.608S0,49.064,0,31.608,15.3,0,34.167,0Z" transform="translate(242.435 69.041)" fill="#000a13" opacity="0.25"/>
      <path id="Path_182" data-name="Path 182" d="M14.069,0c7.77,0,14.069,5.827,14.069,13.015S21.839,26.03,14.069,26.03,0,20.2,0,13.015,6.3,0,14.069,0Z" transform="translate(219.379 15.755)" fill="#000a13" opacity="0.25"/>
      <path id="Intersection_1" data-name="Intersection 1" d="M31.332,98.833C11.87,78.169,0,50.963,0,21.191A110.531,110.531,0,0,1,2.043,0h131.9V139.541q-2.92.122-5.872.122C89.519,139.664,54.95,123.909,31.332,98.833Z" transform="translate(226.061 1.575)" fill="#000a13" opacity="0.08"/>
    </g>
  </g>
</svg>
