<svg width="40" height="40" viewBox="0 0 40 40" fill="none" xmlns="http://www.w3.org/2000/svg">
<circle cx="20" cy="20" r="20" fill="white"/>
<path d="M15.5 19.9996L21.8 13.6996C22.2 13.2996 22.8 12.9996 23.5 12.9996C24.2 12.9996 24.8 13.2996 25.3 13.6996C26.3 14.6996 26.3 16.2996 25.3 17.1996L22.5 19.9996H23.9L25.9 17.9996C27.3 16.5996 27.3 14.3996 25.9 13.0996C25.2 12.3996 24.3 12.0996 23.4 12.0996C22.5 12.0996 21.7 12.2996 21 12.9996L14.7 19.3996C14.4 19.5996 14.2 19.8996 14 20.2996C14.5 20.0996 15 19.9996 15.5 19.9996Z" fill="black"/>
<path d="M19.2999 17.5996L16.8999 19.9996H21.5999L19.2999 17.5996Z" fill="black"/>
<path d="M24.5 21H15.5C13.6 21 12 22.6 12 24.5C12 26.4 13.6 28 15.5 28H24.5C26.4 28 28 26.4 28 24.5C28 22.6 26.4 21 24.5 21ZM24.5 27H20V23H15.5C14.4 23 13.5 23.6 13 24.2C13.2 23 14.2 22 15.5 22H24.5C25.9 22 27 23.1 27 24.5C27 25.9 25.9 27 24.5 27Z" fill="black"/>
</svg>
