<svg width="40" height="40" viewBox="0 0 40 40" fill="none" xmlns="http://www.w3.org/2000/svg">
<circle cx="20" cy="20" r="20" fill="white"/>
<path d="M13.0938 26.9062H13.9062V27.7188C13.9062 27.8265 13.9491 27.9298 14.0252 28.006C14.1014 28.0822 14.2048 28.125 14.3125 28.125H15.9375C16.0452 28.125 16.1486 28.0822 16.2248 28.006C16.3009 27.9298 16.3438 27.8265 16.3438 27.7188V26.9062H17.1562C17.264 26.9062 17.3673 26.8634 17.4435 26.7873C17.5197 26.7111 17.5625 26.6077 17.5625 26.5V24.875C17.5625 24.7673 17.5197 24.6639 17.4435 24.5877C17.3673 24.5116 17.264 24.4688 17.1562 24.4688H16.3438V23.6562C16.3438 23.5485 16.3009 23.4452 16.2248 23.369C16.1486 23.2928 16.0452 23.25 15.9375 23.25H14.3125C14.2048 23.25 14.1014 23.2928 14.0252 23.369C13.9491 23.4452 13.9062 23.5485 13.9062 23.6562V24.4688H13.0938C12.986 24.4688 12.8827 24.5116 12.8065 24.5877C12.7303 24.6639 12.6875 24.7673 12.6875 24.875V26.5C12.6875 26.6077 12.7303 26.7111 12.8065 26.7873C12.8827 26.8634 12.986 26.9062 13.0938 26.9062ZM13.5 25.2812H14.3125C14.4202 25.2812 14.5236 25.2384 14.5998 25.1623C14.6759 25.0861 14.7188 24.9827 14.7188 24.875V24.0625H15.5312V24.875C15.5312 24.9827 15.5741 25.0861 15.6502 25.1623C15.7264 25.2384 15.8298 25.2812 15.9375 25.2812H16.75V26.0938H15.9375C15.8298 26.0938 15.7264 26.1366 15.6502 26.2127C15.5741 26.2889 15.5312 26.3923 15.5312 26.5V27.3125H14.7188V26.5C14.7188 26.3923 14.6759 26.2889 14.5998 26.2127C14.5236 26.1366 14.4202 26.0938 14.3125 26.0938H13.5V25.2812Z" fill="black"/>
<path d="M17.5625 18.375V17.5625H17.9688C18.0765 17.5625 18.1798 17.5197 18.256 17.4435C18.3322 17.3673 18.375 17.264 18.375 17.1562V15.5312C18.374 15.2083 18.2453 14.8989 18.017 14.6705C17.7886 14.4422 17.4792 14.3135 17.1562 14.3125H13.0938C12.7708 14.3135 12.4614 14.4422 12.233 14.6705C12.0047 14.8989 11.876 15.2083 11.875 15.5312V17.1562C11.875 17.264 11.9178 17.3673 11.994 17.4435C12.0702 17.5197 12.1735 17.5625 12.2812 17.5625H12.6875V18.375C11.9336 18.3759 11.2107 18.6757 10.6776 19.2089C10.1445 19.742 9.84461 20.4648 9.84375 21.2188V30.9688C9.84471 31.2917 9.97343 31.6011 10.2018 31.8295C10.4301 32.0578 10.7396 32.1865 11.0625 32.1875H19.1875C19.5104 32.1865 19.8199 32.0578 20.0482 31.8295C20.2766 31.6011 20.4053 31.2917 20.4062 30.9688V21.2188C20.4054 20.4648 20.1055 19.742 19.5724 19.2089C19.0393 18.6757 18.3164 18.3759 17.5625 18.375ZM12.6875 15.5312C12.6875 15.4235 12.7303 15.3202 12.8065 15.244C12.8827 15.1678 12.986 15.125 13.0938 15.125H17.1562C17.264 15.125 17.3673 15.1678 17.4435 15.244C17.5197 15.3202 17.5625 15.4235 17.5625 15.5312V16.75H12.6875V15.5312ZM19.5938 30.9688C19.5938 31.0765 19.5509 31.1798 19.4748 31.256C19.3986 31.3322 19.2952 31.375 19.1875 31.375H11.0625C10.9548 31.375 10.8514 31.3322 10.7752 31.256C10.6991 31.1798 10.6562 31.0765 10.6562 30.9688V29.75H19.5938V30.9688ZM19.5938 28.9375H10.6562V22.4375H19.5938V28.9375ZM19.5938 21.625H10.6562V21.2188C10.6562 20.68 10.8703 20.1634 11.2512 19.7824C11.6321 19.4015 12.1488 19.1875 12.6875 19.1875C12.9028 19.1869 13.1091 19.101 13.2613 18.9488C13.4135 18.7966 13.4994 18.5903 13.5 18.375V17.5625H16.75V18.375C16.7506 18.5903 16.8365 18.7966 16.9887 18.9488C17.1409 19.101 17.3472 19.1869 17.5625 19.1875C18.1012 19.1875 18.6179 19.4015 18.9988 19.7824C19.3797 20.1634 19.5938 20.68 19.5938 21.2188V21.625Z" fill="black"/>
<path d="M28.1253 28.125C28.4111 28.1228 28.6871 28.0202 28.9049 27.8351C29.1228 27.6501 29.2686 27.3944 29.317 27.1127C29.3654 26.831 29.3133 26.5412 29.1697 26.2941C29.0261 26.0469 28.8003 25.8581 28.5316 25.7606V13.9062C28.5306 13.5833 28.4019 13.2739 28.1735 13.0455C27.9452 12.8172 27.6358 12.6885 27.3128 12.6875H26.9066V12.2812C26.9056 11.9583 26.7769 11.6489 26.5485 11.4205C26.3202 11.1922 26.0108 11.0635 25.6878 11.0625V8.21875C25.6878 8.11101 25.645 8.00767 25.5688 7.93149C25.4926 7.8553 25.3893 7.8125 25.2816 7.8125C25.1738 7.8125 25.0705 7.8553 24.9943 7.93149C24.9181 8.00767 24.8753 8.11101 24.8753 8.21875V11.0625C24.5524 11.0635 24.2429 11.1922 24.0146 11.4205C23.7862 11.6489 23.6575 11.9583 23.6566 12.2812V12.6875H23.2503C22.9274 12.6885 22.6179 12.8172 22.3896 13.0455C22.1612 13.2739 22.0325 13.5833 22.0316 13.9062V25.7606C21.7629 25.8581 21.537 26.0469 21.3934 26.2941C21.2499 26.5412 21.1977 26.831 21.2461 27.1127C21.2945 27.3944 21.4404 27.6501 21.6582 27.8351C21.8761 28.0202 22.152 28.1228 22.4378 28.125H23.6566V29.75H23.2503C22.9271 29.75 22.6171 29.8784 22.3885 30.107C22.16 30.3355 22.0316 30.6455 22.0316 30.9688C22.0316 31.292 22.16 31.602 22.3885 31.8305C22.6171 32.0591 22.9271 32.1875 23.2503 32.1875H27.3128C27.6361 32.1875 27.9461 32.0591 28.1746 31.8305C28.4032 31.602 28.5316 31.292 28.5316 30.9688C28.5316 30.6455 28.4032 30.3355 28.1746 30.107C27.9461 29.8784 27.6361 29.75 27.3128 29.75H26.9066V28.125H28.1253ZM24.4691 12.2812C24.4691 12.1735 24.5119 12.0702 24.5881 11.994C24.6642 11.9178 24.7676 11.875 24.8753 11.875H25.6878C25.7956 11.875 25.8989 11.9178 25.9751 11.994C26.0513 12.0702 26.0941 12.1735 26.0941 12.2812V12.6875H24.4691V12.2812ZM22.8441 13.9062C22.8441 13.7985 22.8869 13.6952 22.9631 13.619C23.0392 13.5428 23.1426 13.5 23.2503 13.5H27.3128C27.4206 13.5 27.5239 13.5428 27.6001 13.619C27.6763 13.6952 27.7191 13.7985 27.7191 13.9062V14.3125H26.5003C26.3926 14.3125 26.2892 14.3553 26.2131 14.4315C26.1369 14.5077 26.0941 14.611 26.0941 14.7188C26.0941 14.8265 26.1369 14.9298 26.2131 15.006C26.2892 15.0822 26.3926 15.125 26.5003 15.125H27.7191V15.9375H25.6878C25.5801 15.9375 25.4767 15.9803 25.4006 16.0565C25.3244 16.1327 25.2816 16.236 25.2816 16.3438C25.2816 16.4515 25.3244 16.5548 25.4006 16.631C25.4767 16.7072 25.5801 16.75 25.6878 16.75H27.7191V17.5625H26.5003C26.3926 17.5625 26.2892 17.6053 26.2131 17.6815C26.1369 17.7577 26.0941 17.861 26.0941 17.9688C26.0941 18.0765 26.1369 18.1798 26.2131 18.256C26.2892 18.3322 26.3926 18.375 26.5003 18.375H27.7191V19.1875H25.6878C25.5801 19.1875 25.4767 19.2303 25.4006 19.3065C25.3244 19.3827 25.2816 19.486 25.2816 19.5938C25.2816 19.7015 25.3244 19.8048 25.4006 19.881C25.4767 19.9572 25.5801 20 25.6878 20H27.7191V20.8125H26.5003C26.3926 20.8125 26.2892 20.8553 26.2131 20.9315C26.1369 21.0077 26.0941 21.111 26.0941 21.2188C26.0941 21.3265 26.1369 21.4298 26.2131 21.506C26.2892 21.5822 26.3926 21.625 26.5003 21.625H27.7191V22.4375H25.6878C25.5801 22.4375 25.4767 22.4803 25.4006 22.5565C25.3244 22.6327 25.2816 22.736 25.2816 22.8438C25.2816 22.9515 25.3244 23.0548 25.4006 23.131C25.4767 23.2072 25.5801 23.25 25.6878 23.25H27.7191V25.6875H22.8441V13.9062ZM27.3128 30.5625C27.4206 30.5625 27.5239 30.6053 27.6001 30.6815C27.6763 30.7577 27.7191 30.861 27.7191 30.9688C27.7191 31.0765 27.6763 31.1798 27.6001 31.256C27.5239 31.3322 27.4206 31.375 27.3128 31.375H23.2503C23.1426 31.375 23.0392 31.3322 22.9631 31.256C22.8869 31.1798 22.8441 31.0765 22.8441 30.9688C22.8441 30.861 22.8869 30.7577 22.9631 30.6815C23.0392 30.6053 23.1426 30.5625 23.2503 30.5625H27.3128ZM24.4691 29.75V28.125H26.0941V29.75H24.4691ZM22.4378 27.3125C22.3301 27.3125 22.2267 27.2697 22.1506 27.1935C22.0744 27.1173 22.0316 27.014 22.0316 26.9062C22.0316 26.7985 22.0744 26.6952 22.1506 26.619C22.2267 26.5428 22.3301 26.5 22.4378 26.5H28.1253C28.2331 26.5 28.3364 26.5428 28.4126 26.619C28.4888 26.6952 28.5316 26.7985 28.5316 26.9062C28.5316 27.014 28.4888 27.1173 28.4126 27.1935C28.3364 27.2697 28.2331 27.3125 28.1253 27.3125H22.4378Z" fill="black"/>
</svg>
