<svg width="40" height="40" viewBox="0 0 40 40" fill="none" xmlns="http://www.w3.org/2000/svg">
<path d="M35 26.7383C35 25.2844 33.8172 24.1016 32.3633 24.1016H30.8287C30.9263 23.8265 30.9799 23.5308 30.9799 23.2227V20.3713L31.2204 20.2324C32.4795 19.5055 32.9124 17.8897 32.1855 16.6306C31.7289 15.8396 30.9215 15.375 30.0722 15.3188C29.5845 14.5244 28.9218 13.8483 28.1301 13.3437C27.4772 12.9276 26.7558 12.6421 26.0022 12.4962C26.6086 11.7427 26.9727 10.7864 26.9727 9.74609C26.9727 7.32295 25.0013 5.35156 22.5781 5.35156C20.155 5.35156 18.1836 7.32295 18.1836 9.74609C18.1836 10.7726 18.5383 11.7173 19.1304 12.4661C16.2167 12.9492 13.9877 15.4866 13.9877 18.5352V20.8789C13.9877 21.4065 14.116 21.9045 14.3418 22.3446C13.3947 22.3534 12.536 22.7384 11.9083 23.3575C11.2169 22.3902 10.0855 21.7578 8.80859 21.7578C6.70854 21.7578 5 23.4663 5 25.5664C5 26.6565 5.46113 27.6404 6.19766 28.3354C5.46775 28.9266 5 29.8295 5 30.8398V33.7695C5 34.2549 5.39352 34.6484 5.87891 34.6484H34.1211C34.6065 34.6484 35 34.2549 35 33.7695V30.8398C35 30.0042 34.6802 29.242 34.1567 28.6688C34.6749 28.187 35 27.5 35 26.7383ZM29.2221 23.2227C29.2221 23.7073 28.8278 24.1016 28.3432 24.1016C27.8585 24.1016 27.4643 23.7073 27.4643 23.2227C27.4643 23.2219 27.4641 23.2211 27.4641 23.2204V22.4011L29.2221 21.3861V23.2227ZM22.5781 7.10938C24.032 7.10938 25.2148 8.29221 25.2148 9.74609C25.2148 11.2 24.032 12.3828 22.5781 12.3828C21.1242 12.3828 19.9414 11.2 19.9414 9.74609C19.9414 8.29221 21.1242 7.10938 22.5781 7.10938ZM15.7455 18.5352C15.7455 16.112 17.7169 14.1406 20.14 14.1406H24.8275C26.2102 14.1406 27.4732 14.7716 28.2951 15.8322L23.5094 18.5952C23.2125 18.7666 22.9575 18.9937 22.7528 19.2584C22.3382 18.9868 21.8434 18.8282 21.3118 18.8282H19.2611V17.9493C19.2611 17.4639 18.8676 17.0704 18.3822 17.0704C17.8968 17.0704 17.5033 17.4639 17.5033 17.9493V19.7071C17.5033 20.1925 17.8968 20.586 18.3822 20.586H21.3118C21.7964 20.586 22.1907 20.9803 22.1907 21.4649C22.1907 21.9495 21.7964 22.3438 21.3118 22.3438H17.2104C16.4026 22.3438 15.7455 21.6867 15.7455 20.879V18.5352ZM14.375 24.1016H23.0696C23.555 24.1016 23.9485 23.708 23.9485 23.2227C23.9485 23.2227 23.956 20.9187 23.9561 20.8797C23.9564 20.5585 24.118 20.2736 24.3883 20.1175L29.4627 17.1878C29.8824 16.9454 30.4209 17.0897 30.6632 17.5095C30.9056 17.9292 30.7613 18.4677 30.3416 18.7101L26.1458 21.1325C25.8739 21.2895 25.7064 21.5796 25.7064 21.8936V24.9805C25.7064 25.4659 26.0999 25.8594 26.5853 25.8594H32.3633C32.8479 25.8594 33.2422 26.2537 33.2422 26.7383C33.2422 27.2229 32.8479 27.6172 32.3633 27.6172H14.375C13.4057 27.6172 12.6172 26.8286 12.6172 25.8594C12.6172 24.8901 13.4057 24.1016 14.375 24.1016ZM8.80859 23.5156C9.93939 23.5156 10.8594 24.4356 10.8594 25.5664C10.8594 26.6972 9.93939 27.6172 8.80859 27.6172C7.67779 27.6172 6.75781 26.6972 6.75781 25.5664C6.75781 24.4356 7.67779 23.5156 8.80859 23.5156ZM33.2422 32.8906H6.75781V30.8398C6.75781 30.0321 7.41494 29.375 8.22266 29.375H31.7773C32.5851 29.375 33.2422 30.0321 33.2422 30.8398V32.8906Z" fill="black"/>
</svg>
