<svg width="40" height="40" viewBox="0 0 40 40" fill="none" xmlns="http://www.w3.org/2000/svg">
<g clip-path="url(#clip0)">
<path d="M23.274 12.033C22.3995 12.9076 21.2367 13.3892 19.9999 13.3892C18.7632 13.3892 17.6004 12.9076 16.7259 12.033C16.4971 11.8042 16.1261 11.8042 15.8972 12.033C15.6684 12.2618 15.6684 12.6328 15.8972 12.8617C17.0283 13.9928 18.5142 14.5584 19.9999 14.5584C21.4857 14.5584 22.9715 13.9928 24.1027 12.8617C24.3315 12.6329 24.3315 12.2618 24.1027 12.033C23.8739 11.8041 23.5028 11.8041 23.274 12.033Z" fill="black"/>
<path d="M32.5332 23.3092H27.9922L31.1246 18.1599C31.1332 18.1459 31.1411 18.1316 31.1484 18.1169C32.1487 16.1109 32.1792 13.8456 31.2471 11.8382L31.6041 11.6429C31.792 11.5401 31.9089 11.343 31.9089 11.1288C31.9089 10.9147 31.792 10.7175 31.6041 10.6148L29.8608 9.66137L28.9074 7.91809C28.8046 7.73018 28.6075 7.61328 28.3933 7.61328C28.1792 7.61328 27.982 7.73018 27.8793 7.91809L27.687 8.26965C26.7406 7.83395 25.7202 7.61334 24.649 7.61334C23.2984 7.61334 21.9839 7.9833 20.8477 8.68326C20.3248 9.00535 19.6753 9.00535 19.1524 8.68326C18.0162 7.9833 16.7017 7.61334 15.3511 7.61334C12.8172 7.61334 10.5085 8.89977 9.17516 11.0545C7.84186 13.2092 7.72092 15.8494 8.85166 18.117C8.85898 18.1317 8.86695 18.1462 8.87551 18.1602L12.0092 23.3093H7.4668C6.1066 23.3093 5 24.4159 5 25.7761V31.8004C5 32.124 5.26232 32.3863 5.58594 32.3863H17.3512C17.6748 32.3863 17.9371 32.124 17.9371 31.8004C17.9371 31.4768 17.6748 31.2144 17.3512 31.2144H6.17188V25.7761C6.17188 25.0621 6.75277 24.4812 7.4668 24.4812H12.7223L15.3339 28.7726C15.6049 29.297 16.1031 29.6493 16.6718 29.7174C16.7432 29.726 16.814 29.7301 16.884 29.7301C17.6524 29.7301 18.3282 29.2283 18.5417 28.4735L19.782 24.7559C19.7905 24.7305 19.7972 24.7045 19.8021 24.6782C19.8225 24.5691 19.8891 24.5138 20.0001 24.5138C20.1111 24.5138 20.1777 24.5691 20.1981 24.6782C20.203 24.7045 20.2098 24.7305 20.2183 24.7559L21.4585 28.4736C21.6684 29.2143 22.3491 29.7299 23.1203 29.7299C23.7705 29.7299 24.3556 29.3734 24.6538 28.7975L27.2795 24.4812H32.5332C33.2472 24.4812 33.8281 25.0621 33.8281 25.7762V31.2145H22.6488C22.3252 31.2145 22.0629 31.4768 22.0629 31.8004C22.0629 32.124 22.3252 32.3864 22.6488 32.3864H34.4141C34.7377 32.3864 35 32.124 35 31.8004V25.776C35 24.4158 33.8934 23.3092 32.5332 23.3092ZM28.915 10.3742C28.9688 10.4725 29.0496 10.5534 29.1479 10.6071L30.1019 11.1288L29.1479 11.6506C29.0496 11.7043 28.9688 11.7852 28.915 11.8835L28.3933 12.8374L27.8716 11.8835C27.8179 11.7852 27.737 11.7043 27.6387 11.6506L26.6847 11.1288L27.6387 10.6071C27.737 10.5534 27.8179 10.4725 27.8716 10.3742L28.3933 9.42031L28.915 10.3742ZM23.641 28.2072C23.6324 28.2212 23.6245 28.2356 23.6172 28.2503C23.5226 28.44 23.3322 28.5578 23.1202 28.5578C22.8702 28.5578 22.6499 28.3894 22.5843 28.1483C22.5814 28.1376 22.5782 28.1271 22.5747 28.1166L21.3409 24.4183C21.2014 23.7821 20.6562 23.3418 20 23.3418C19.3438 23.3418 18.7986 23.7821 18.6591 24.4183L17.4253 28.1166C17.4218 28.1271 17.4187 28.1376 17.4157 28.1483C17.3428 28.4165 17.0882 28.5869 16.811 28.5538C16.6294 28.532 16.4606 28.4062 16.3705 28.2254C16.3631 28.2107 16.3552 28.1964 16.3466 28.1823L9.88959 17.5723C8.95279 15.6755 9.05768 13.4712 10.1716 11.671C11.2897 9.86393 13.226 8.7851 15.3511 8.7851C16.4845 8.7851 17.5863 9.09488 18.5377 9.68094C19.4397 10.2366 20.5603 10.2366 21.4623 9.68094C22.4136 9.09488 23.5156 8.7851 24.6489 8.7851C25.5211 8.7851 26.3516 8.95842 27.123 9.30072L26.9258 9.66131L25.1824 10.6147C24.9945 10.7175 24.8776 10.9146 24.8776 11.1288C24.8776 11.3429 24.9945 11.5401 25.1824 11.6428L26.9258 12.5964L27.8792 14.3397C27.982 14.5276 28.1791 14.6445 28.3933 14.6445C28.6074 14.6445 28.8046 14.5276 28.9073 14.3397L29.8607 12.5964L30.2161 12.402C30.9601 14.0595 30.9267 15.9196 30.1103 17.5724L23.641 28.2072Z" fill="black"/>
<path d="M20.5519 31.5762C20.4579 31.3505 20.2261 31.2025 19.9814 31.2157C19.7435 31.2285 19.5329 31.3862 19.4562 31.6122C19.3778 31.8431 19.4544 32.1078 19.6463 32.2594C19.8389 32.4114 20.1112 32.4268 20.3197 32.2979C20.5612 32.1485 20.6592 31.8382 20.5519 31.5762Z" fill="black"/>
</g>
<defs>
<clipPath id="clip0">
<rect width="30" height="30" fill="white" transform="translate(5 5)"/>
</clipPath>
</defs>
</svg>
