<svg width="40" height="40" viewBox="0 0 40 40" fill="none" xmlns="http://www.w3.org/2000/svg">
<g clip-path="url(#clip0)">
<path d="M19.8101 17.3468C19.9305 17.3468 20.0511 17.3006 20.1427 17.2083L20.4328 16.9162C20.6152 16.7326 20.6142 16.4358 20.4305 16.2533C20.2468 16.0709 19.9501 16.0719 19.7676 16.2556L19.4774 16.5477C19.295 16.7314 19.2961 17.0282 19.4797 17.2106C19.5712 17.3015 19.6906 17.3468 19.8101 17.3468Z" fill="black"/>
<path d="M21.4551 19.003C21.5756 19.003 21.6961 18.9569 21.7878 18.8646L22.0778 18.5725C22.2603 18.3888 22.2592 18.092 22.0755 17.9096C21.8918 17.7272 21.5951 17.7282 21.4126 17.9119L21.1225 18.204C20.94 18.3876 20.9411 18.6844 21.1248 18.8669C21.2163 18.9577 21.3357 19.003 21.4551 19.003Z" fill="black"/>
<path d="M23.0581 19.5681L22.768 19.8602C22.5855 20.0439 22.5866 20.3407 22.7703 20.5231C22.8617 20.6139 22.9812 20.6592 23.1006 20.6592C23.2211 20.6592 23.3416 20.6131 23.4332 20.5208L23.7233 20.2287C23.9058 20.045 23.9047 19.7482 23.721 19.5658C23.5372 19.3834 23.2405 19.3844 23.0581 19.5681Z" fill="black"/>
<path d="M18.2095 18.9581C18.33 18.9581 18.4505 18.9119 18.5421 18.8197L18.8322 18.5276C19.0147 18.3439 19.0136 18.0471 18.8299 17.8647C18.6463 17.6823 18.3494 17.6832 18.167 17.8669L17.8769 18.159C17.6944 18.3427 17.6955 18.6395 17.8792 18.8219C17.9706 18.9127 18.0901 18.9581 18.2095 18.9581Z" fill="black"/>
<path d="M19.8545 20.6144C19.975 20.6144 20.0955 20.5682 20.1871 20.476L20.4772 20.1839C20.6597 20.0002 20.6587 19.7034 20.475 19.521C20.2914 19.3385 19.9945 19.3395 19.8121 19.5232L19.5219 19.8153C19.3395 19.9989 19.3405 20.2958 19.5242 20.4782C19.6156 20.569 19.7351 20.6144 19.8545 20.6144Z" fill="black"/>
<path d="M21.4576 21.1804L21.1674 21.4725C20.985 21.6562 20.986 21.953 21.1697 22.1354C21.2611 22.2262 21.3806 22.2716 21.5 22.2716C21.6205 22.2716 21.741 22.2254 21.8326 22.1332L22.1227 21.841C22.3052 21.6574 22.3042 21.3605 22.1205 21.1781C21.9369 20.9957 21.64 20.9967 21.4576 21.1804Z" fill="black"/>
<path d="M16.5663 19.4793L16.2763 19.7714C16.0938 19.9551 16.0949 20.2518 16.2786 20.4343C16.37 20.5251 16.4895 20.5704 16.6089 20.5704C16.7294 20.5704 16.8499 20.5242 16.9415 20.4319L17.2316 20.1398C17.4141 19.9562 17.413 19.6594 17.2293 19.4769C17.0455 19.2945 16.7488 19.2956 16.5663 19.4793Z" fill="black"/>
<path d="M18.2114 21.1355L17.9213 21.4277C17.7389 21.6113 17.7399 21.9081 17.9236 22.0906C18.015 22.1814 18.1345 22.2267 18.2539 22.2267C18.3744 22.2267 18.4949 22.1805 18.5865 22.0882L18.8767 21.7961C19.0591 21.6124 19.058 21.3157 18.8744 21.1332C18.6906 20.9508 18.3939 20.9518 18.2114 21.1355Z" fill="black"/>
<path d="M19.8564 22.7918L19.5663 23.0839C19.3839 23.2676 19.385 23.5643 19.5686 23.7468C19.6601 23.8376 19.7795 23.8829 19.8989 23.8829C20.0194 23.8829 20.1399 23.8367 20.2316 23.7444L20.5217 23.4524C20.7041 23.2687 20.703 22.9719 20.5194 22.7895C20.3356 22.6071 20.0388 22.608 19.8564 22.7918Z" fill="black"/>
<path d="M30.4609 23.4313L27.053 20L28.0865 18.9594C28.0872 18.9587 28.0879 18.9579 28.0886 18.9572L30.4608 16.5688C32.4041 14.612 32.4041 11.4282 30.4608 9.4715C29.5184 8.52256 28.2651 8 26.9319 8C25.5987 8 24.3454 8.52256 23.403 9.4715L19.9997 12.8982L16.5964 9.4715C15.6751 8.5438 14.4564 8.03291 13.1649 8.03295C11.8333 8.03295 10.569 8.56756 9.6049 9.5383C8.66089 10.4887 8.13059 11.7347 8.11165 13.0468C8.09253 14.3722 8.59925 15.623 9.53853 16.5688L12.9463 20L9.53853 23.4313C7.59523 25.388 7.59523 28.5718 9.53853 30.5285C10.481 31.4774 11.7343 32 13.0675 32C14.4007 32 15.654 31.4774 16.5964 30.5285L19.9997 27.1018L23.403 30.5285C24.3454 31.4774 25.5987 32 26.9319 32C28.2651 32 29.5184 31.4774 30.4608 30.5285C32.4042 28.5718 32.4042 25.388 30.4609 23.4313ZM24.0682 10.1321C24.8333 9.36177 25.8503 8.9375 26.9319 8.9375C28.0135 8.9375 29.0305 9.36177 29.7957 10.1322C31.3772 11.7246 31.3772 14.3157 29.7956 15.9081L26.4058 19.3212C26.4056 19.3214 26.4053 19.3217 26.405 19.322L26.3923 19.3348L20.6604 13.5634L24.0682 10.1321ZM10.2038 15.9081C8.63253 14.3261 8.66168 11.8183 10.2701 10.1989C11.0568 9.40672 12.0849 8.97041 13.1648 8.97041C14.2047 8.97041 15.1872 9.38295 15.9312 10.1321L19.3391 13.5634L13.607 19.3348L10.2038 15.9081ZM15.9312 29.8679C15.1661 30.6382 14.1491 31.0625 13.0675 31.0625C11.9859 31.0625 10.9689 30.6382 10.2037 29.8678C8.62221 28.2754 8.62221 25.6843 10.2038 24.0919L13.607 20.6652L19.339 26.4366L15.9312 29.8679ZM29.7956 29.8679C29.0305 30.6382 28.0135 31.0625 26.9319 31.0625C25.8503 31.0625 24.8333 30.6382 24.0682 29.8679L20.6603 26.4366L22.2214 24.8649C22.4038 24.6812 22.4028 24.3844 22.2191 24.202C22.0354 24.0195 21.7386 24.0206 21.5562 24.2042L19.9997 25.7714L14.2677 20L19.9997 14.2286L25.7316 20L24.5529 21.1868C24.3705 21.3705 24.3715 21.6673 24.5552 21.8497C24.6467 21.9406 24.7661 21.9859 24.8855 21.9859C25.006 21.9859 25.1265 21.9397 25.2182 21.8475L26.3923 20.6652L29.7956 24.092C31.3772 25.6843 31.3772 28.2755 29.7956 29.8679Z" fill="black"/>
<path d="M23.8141 22.8528C23.7385 22.6683 23.5466 22.5503 23.3478 22.5647C23.1534 22.5787 22.9843 22.7161 22.9308 22.9033C22.8768 23.092 22.9495 23.2987 23.1086 23.4131C23.2653 23.5257 23.4811 23.5287 23.6416 23.4219C23.8252 23.2998 23.8988 23.0562 23.8141 22.8528Z" fill="black"/>
</g>
<defs>
<clipPath id="clip0">
<rect width="24" height="24" fill="white" transform="translate(8 8)"/>
</clipPath>
</defs>
</svg>
