<svg width="40" height="40" viewBox="0 0 40 40" fill="none" xmlns="http://www.w3.org/2000/svg">
<path d="M32.5938 17.5625C32.5938 16.4425 31.6825 15.5312 30.5625 15.5312H28.554C28.8709 14.8447 29.2848 14.2162 29.787 13.6515C30.0762 13.8335 30.4089 13.9351 30.7583 13.9351C31.2487 13.9351 31.7102 13.7433 32.0567 13.3948C32.7713 12.6765 32.7713 11.5082 32.0567 10.7903L29.2272 7.94656C28.8806 7.59841 28.4195 7.40625 27.9292 7.40625C27.4388 7.40625 26.9773 7.59841 26.6308 7.94656C26.0202 8.56 25.9361 9.50006 26.3688 10.2094C25.6554 10.8484 24.8441 11.3509 23.9422 11.6893C22.795 12.1196 21.7737 12.7769 20.9067 13.6438L19.0193 15.5312H17.9265C19.4134 14.5961 20.4062 12.9451 20.4062 11.0625C20.4062 10.8382 20.2247 10.6562 20 10.6562H17.9688V7.8125C17.9688 7.58825 17.7872 7.40625 17.5625 7.40625C15.6848 7.40625 14.0371 8.39425 13.1002 9.87503C11.7942 8.31991 9.86162 7.40625 7.8125 7.40625C7.58784 7.40625 7.40625 7.58825 7.40625 7.8125V9.4375C7.40625 12.033 8.85169 14.3531 11.0633 15.5312H9.4375C8.31747 15.5312 7.40625 16.4425 7.40625 17.5625C7.40625 18.3933 7.90878 19.1071 8.625 19.4215V19.5938C8.625 23.6774 10.8342 27.4689 14.3897 29.488C14.5063 29.5542 14.594 29.6692 14.6241 29.7963C14.6412 29.8682 14.6477 29.9751 14.5798 30.0774C14.3828 30.3752 14.2918 30.7226 14.3162 31.0821C14.3747 31.9299 15.1157 32.5938 16.0029 32.5938H23.9971C24.8848 32.5938 25.6253 31.9299 25.6838 31.0821C25.7082 30.7226 25.6172 30.3756 25.4202 30.0774C25.3523 29.9751 25.3588 29.8678 25.3759 29.7963C25.406 29.6696 25.4937 29.5542 25.6099 29.488C29.1658 27.4689 31.375 23.6774 31.375 19.5938V19.4215C32.0912 19.1071 32.5938 18.3933 32.5938 17.5625ZM29.18 13.1133C28.9135 13.4131 28.6665 13.7267 28.4463 14.059L25.9499 11.5626C26.2839 11.3408 26.5991 11.0913 26.9006 10.822L29.18 13.1133ZM27.2065 8.51978C27.3998 8.32559 27.6566 8.21875 27.9292 8.21875C28.2018 8.21875 28.4585 8.32559 28.6515 8.51978L31.481 11.3635C31.8812 11.7653 31.8812 12.4194 31.481 12.8216C31.0947 13.2095 30.4227 13.2095 30.036 12.8216L27.2065 9.97781C26.8063 9.57562 26.8063 8.92156 27.2065 8.51978ZM21.4812 14.2187C22.2657 13.4346 23.1895 12.8394 24.2274 12.4507C24.5744 12.3207 24.9055 12.1622 25.2288 11.9908L28.0198 14.7817C27.8918 15.0238 27.7764 15.2745 27.6704 15.5317H20.1682L21.4812 14.2187ZM15.5203 15.5122C16.882 14.6424 17.818 13.1681 17.9484 11.4688H19.5759C19.3813 13.6129 17.6657 15.3232 15.5203 15.5122ZM17.1562 8.23703V11.0625C17.1562 13.2164 15.6235 15.0165 13.5918 15.4362L14.3344 14.4811C15.3683 13.1523 16.061 11.5715 16.3381 9.91038L15.5365 9.77672C15.2818 11.3054 14.6444 12.7594 13.6934 13.9822L13.0938 14.7537V12.6875C13.0938 10.3601 14.8817 8.443 17.1562 8.23703ZM8.21875 9.4375V8.23216C9.98716 8.35037 11.617 9.24169 12.6851 10.6664C12.4681 11.188 12.3373 11.7527 12.2987 12.3426C11.3136 11.6191 10.5108 10.6753 9.96034 9.57441L9.80109 9.25591L9.07391 9.61909L9.23356 9.938C9.92581 11.3229 10.9792 12.4832 12.2812 13.3139V15.1843C9.86488 14.3332 8.21875 12.0412 8.21875 9.4375ZM25.2077 28.7819C24.8949 28.9598 24.6682 29.2613 24.5853 29.6074C24.5086 29.93 24.5638 30.2562 24.7426 30.5259C24.8401 30.6738 24.8856 30.8469 24.873 31.0264C24.8445 31.4428 24.4513 31.7812 23.9971 31.7812H16.0029C15.5487 31.7812 15.1555 31.4428 15.127 31.0268C15.1148 30.8473 15.1599 30.6742 15.2574 30.5263C15.4358 30.2566 15.4914 29.9304 15.4147 29.6078C15.3318 29.2613 15.1047 28.9603 14.7919 28.7823C11.4891 26.9062 9.4375 23.3857 9.4375 19.5938H30.5625C30.5625 23.3857 28.5109 26.9062 25.2077 28.7819ZM30.5625 18.7812H9.4375C8.76556 18.7812 8.21875 18.2344 8.21875 17.5625C8.21875 16.8906 8.76556 16.3438 9.4375 16.3438H12.6875H15.125H30.5625C31.2344 16.3438 31.7812 16.8906 31.7812 17.5625C31.7812 18.2344 31.2344 18.7812 30.5625 18.7812Z" fill="black"/>
<path d="M29.6032 21.289L28.8025 21.1484C28.3085 23.9666 26.4702 26.3948 23.8853 27.6444L24.2391 28.376C27.0585 27.0131 29.0637 24.3635 29.6032 21.289Z" fill="black"/>
<path d="M10.25 20.4062H20V21.2188H10.25V20.4062Z" fill="black"/>
<path d="M20.8125 20.4062H21.625V21.2188H20.8125V20.4062Z" fill="black"/>
</svg>
